<svg aria-hidden="true" style="position: absolute; width: 0; height: 0; overflow: hidden;" version="1.1" xmlns="http://www.w3.org/2000/svg" xmlns:xlink="http://www.w3.org/1999/xlink">
<defs>
<symbol id="logo" viewBox="0 0 31 32" fill="currentColor">
<path d="M14.925 0.073c-0.477 0.094-1.123 0.553-1.482 1.057-0.202 0.282-0.417 0.723-0.466 0.95-0.056 0.275-0.049 1.064 0.014 1.308 0.118 0.459 0.539 1.085 0.96 1.437 0.122 0.101 0.341 0.247 0.49 0.323l0.271 0.143v1.085c0 0.598-0.010 1.141-0.021 1.21l-0.021 0.122-0.317 0.063c-1.384 0.278-2.435 0.713-3.384 1.405-0.139 0.101-0.264 0.181-0.278 0.181-0.017 0-0.417-0.386-0.89-0.863l-0.863-0.859 0.097-0.226c0.090-0.219 0.094-0.247 0.094-0.87 0-0.567-0.010-0.671-0.077-0.887-0.226-0.71-0.821-1.343-1.551-1.645-1.325-0.553-2.849 0.017-3.468 1.294-0.24 0.49-0.289 0.73-0.268 1.29 0.021 0.49 0.070 0.696 0.261 1.103 0.303 0.626 0.977 1.228 1.572 1.398 0.522 0.15 1.374 0.136 1.788-0.031l0.212-0.087 0.863 0.863c0.473 0.473 0.859 0.87 0.859 0.88 0 0.014-0.129 0.219-0.289 0.456-0.633 0.936-1.13 2.202-1.294 3.29-0.028 0.184-0.052 0.358-0.052 0.379 0 0.035-0.268 0.045-1.228 0.045h-1.228l-0.063-0.132c-0.296-0.626-0.751-1.078-1.381-1.381-0.362-0.174-0.543-0.198-1.245-0.184-0.602 0.014-0.616 0.014-0.883 0.129-0.713 0.306-1.242 0.842-1.53 1.551l-0.111 0.278v1.391l0.111 0.271c0.306 0.737 0.87 1.294 1.593 1.576 0.223 0.087 0.296 0.097 0.814 0.111 0.64 0.017 0.877-0.017 1.21-0.167 0.581-0.264 1.033-0.692 1.357-1.29l0.132-0.24h1.221c0.939 0 1.231 0.010 1.256 0.042 0.021 0.024 0.070 0.226 0.111 0.445 0.188 0.95 0.588 1.896 1.21 2.845 0.146 0.223 0.271 0.428 0.278 0.459s-0.313 0.383-0.835 0.908l-0.849 0.859-0.257-0.087c-0.466-0.157-1.384-0.146-1.864 0.024-0.313 0.108-0.605 0.313-0.932 0.64-0.605 0.612-0.842 1.214-0.807 2.038 0.052 1.221 0.824 2.177 2.024 2.508 0.351 0.097 0.925 0.104 1.287 0.017 1.016-0.243 1.903-1.158 2.035-2.097 0.066-0.456 0.031-1.186-0.073-1.482l-0.080-0.237 0.605-0.609c0.334-0.334 0.73-0.72 0.877-0.856l0.271-0.243 0.477 0.306c0.988 0.633 1.715 0.936 2.845 1.179 0.372 0.080 0.609 0.15 0.637 0.184 0.031 0.042 0.042 0.344 0.042 1.242v1.186l-0.163 0.080c-0.605 0.292-1.162 0.859-1.419 1.443-0.188 0.428-0.247 1.127-0.136 1.631 0.073 0.327 0.348 0.89 0.57 1.162 0.24 0.296 0.553 0.543 0.887 0.706 0.41 0.198 0.511 0.216 1.273 0.202 0.637-0.010 0.685-0.017 0.894-0.104 0.664-0.278 1.183-0.776 1.482-1.426 0.195-0.421 0.243-0.65 0.243-1.158 0-0.414-0.010-0.477-0.104-0.748-0.257-0.734-0.8-1.37-1.412-1.663l-0.268-0.129-0.003-1.224c0-1.134 0.003-1.224 0.063-1.242 0.031-0.007 0.202-0.042 0.372-0.073 1.064-0.191 2.115-0.612 3.043-1.217 0.219-0.143 0.438-0.282 0.483-0.303 0.077-0.042 0.118-0.003 0.835 0.72 0.417 0.421 0.8 0.828 0.852 0.908l0.090 0.143-0.087 0.327c-0.122 0.459-0.146 0.845-0.073 1.214 0.195 0.957 0.81 1.708 1.711 2.087 0.264 0.111 0.296 0.118 0.814 0.132 0.654 0.017 0.849-0.014 1.266-0.212 0.397-0.191 0.79-0.501 1.023-0.81 0.243-0.327 0.483-0.821 0.525-1.096 0.045-0.275 0.049-0.842 0.003-1.137-0.038-0.285-0.243-0.717-0.494-1.057-0.699-0.943-1.962-1.332-3.085-0.953l-0.24 0.080-1.746-1.746 0.083-0.104c0.17-0.219 0.581-0.89 0.762-1.256 0.313-0.616 0.543-1.287 0.72-2.094l0.080-0.355h2.546l0.129 0.223c0.435 0.741 1.318 1.294 2.188 1.367 0.483 0.042 1.12-0.122 1.61-0.414 0.296-0.174 0.758-0.63 0.922-0.904 0.264-0.456 0.296-0.574 0.31-1.266 0.017-0.717-0.010-0.897-0.184-1.263-0.278-0.577-0.748-1.033-1.398-1.357-0.351-0.174-0.546-0.212-1.071-0.212-0.532 0-0.723 0.038-1.085 0.216-0.654 0.317-1.169 0.842-1.454 1.478l-0.097 0.219h-2.383l-0.024-0.219c-0.031-0.292-0.202-1.054-0.313-1.416-0.216-0.682-0.598-1.464-1.050-2.153l-0.261-0.397 0.863-0.863 0.866-0.863 0.261 0.090c0.344 0.118 1.12 0.153 1.53 0.066 0.859-0.181 1.746-1.037 1.958-1.885 0.136-0.536 0.101-1.242-0.083-1.722-0.626-1.624-2.64-2.247-4.056-1.252-0.487 0.344-0.863 0.828-1.047 1.357-0.083 0.247-0.090 0.306-0.094 0.873 0 0.577 0.003 0.623 0.094 0.87l0.097 0.261-0.254 0.254c-0.637 0.647-1.454 1.45-1.482 1.461-0.014 0.003-0.191-0.104-0.39-0.243-0.863-0.602-1.854-1.026-2.953-1.263-0.24-0.052-0.48-0.104-0.539-0.118-0.090-0.021-0.108-0.045-0.129-0.181-0.010-0.083-0.024-0.626-0.024-1.203l-0.003-1.050 0.271-0.139c0.504-0.264 0.835-0.584 1.151-1.11 0.090-0.153 0.212-0.417 0.268-0.588 0.090-0.268 0.101-0.355 0.101-0.723 0-0.47-0.073-0.793-0.264-1.176-0.372-0.744-1.078-1.336-1.763-1.482-0.212-0.045-1.169-0.045-1.395 0zM16.125 9.357c1.047 0.083 1.722 0.275 2.532 0.723 1.346 0.744 2.369 1.927 2.925 3.381 0.473 1.242 0.518 2.842 0.115 4.049-0.536 1.607-1.562 2.883-2.95 3.67-0.431 0.243-1.148 0.536-1.544 0.63-0.393 0.094-0.943 0.139-1.656 0.139-1.009 0-1.36-0.063-2.191-0.386-1.763-0.685-3.106-2.090-3.732-3.913-0.421-1.217-0.428-2.734-0.021-3.948 0.783-2.341 2.727-3.962 5.214-4.355 0.181-0.028 0.877-0.024 1.308 0.010z"></path>
<path d="M15.252 10.772c-0.16 0.038-0.184 0.122-0.223 0.706l-0.021 0.33-0.466 0.243c-0.546 0.285-0.842 0.518-1.040 0.817-0.195 0.289-0.285 0.598-0.31 1.026-0.031 0.588 0.132 1.026 0.536 1.43 0.25 0.25 0.466 0.39 1.002 0.64 1.377 0.654 1.485 0.72 1.614 0.984 0.191 0.393-0.028 0.824-0.501 0.988-0.132 0.049-0.271 0.063-0.574 0.059-0.431-0.007-0.758-0.073-1.155-0.243-0.452-0.188-0.515-0.205-0.616-0.15-0.070 0.038-0.115 0.118-0.188 0.344-0.139 0.414-0.202 0.762-0.157 0.852 0.090 0.163 0.383 0.299 1.037 0.47 0.289 0.077 0.55 0.153 0.584 0.17 0.132 0.070 0.16 0.153 0.202 0.57 0.045 0.48 0.052 0.494 0.355 0.532 0.198 0.024 0.64 0.003 0.744-0.038 0.070-0.028 0.087-0.094 0.136-0.543 0.066-0.633 0.038-0.591 0.529-0.831 0.65-0.313 0.995-0.63 1.252-1.148 0.108-0.216 0.111-0.24 0.122-0.737 0.010-0.445 0.003-0.55-0.059-0.751-0.136-0.435-0.424-0.828-0.807-1.089-0.111-0.073-0.602-0.33-1.085-0.57-0.717-0.348-0.918-0.463-1.047-0.591-0.275-0.278-0.299-0.574-0.063-0.81 0.167-0.167 0.358-0.223 0.772-0.223 0.417 0.003 0.664 0.045 1.21 0.205 0.358 0.104 0.435 0.118 0.463 0.077 0.083-0.129 0.289-0.863 0.292-1.040v-0.191l-0.174-0.094c-0.205-0.111-0.626-0.247-0.991-0.323-0.143-0.028-0.278-0.070-0.299-0.094-0.024-0.024-0.063-0.202-0.083-0.393-0.045-0.407-0.087-0.56-0.16-0.588-0.063-0.024-0.73-0.021-0.831 0.003z"></path>
</symbol>
</defs>
</svg>
